<svg width="34" height="34" viewBox="0 0 34 34" fill="none" xmlns="http://www.w3.org/2000/svg">
<circle cx="17" cy="17" r="16.5" fill="white" stroke="#2C3648"/>
<rect width="16" height="20" transform="translate(9 7)" fill="white"/>
<path d="M17 17C19.9455 17 22.3333 14.7614 22.3333 12C22.3333 9.23858 19.9455 7 17 7C14.0544 7 11.6666 9.23858 11.6666 12C11.6666 14.7614 14.0544 17 17 17Z" fill="#2C3648"/>
<path d="M17 18.6667C12.5837 18.6713 9.00492 22.0265 9 26.1667C9 26.6269 9.39796 27 9.88887 27H24.1111C24.602 27 25 26.6269 25 26.1667C24.9951 22.0265 21.4162 18.6713 17 18.6667Z" fill="#2C3648"/>
</svg>
