<svg width="22" height="45" viewBox="0 0 22 45" fill="none" xmlns="http://www.w3.org/2000/svg">
<path d="M2.12501 45C1.87825 45.0014 1.63363 44.9541 1.40518 44.8608C1.17674 44.7675 0.968958 44.63 0.793758 44.4562C0.618017 44.2819 0.478528 44.0746 0.383337 43.8461C0.288145 43.6176 0.239136 43.3725 0.239136 43.125C0.239136 42.8775 0.288145 42.6324 0.383337 42.4039C0.478528 42.1754 0.618017 41.9681 0.793758 41.7938L16.1125 26.475C17.1659 25.4203 17.7576 23.9906 17.7576 22.5C17.7576 21.0094 17.1659 19.5797 16.1125 18.525L0.793758 3.20625C0.440688 2.85318 0.242336 2.37431 0.242336 1.875C0.242336 1.37568 0.440688 0.896816 0.793758 0.543747C1.14683 0.190677 1.62569 -0.00767517 2.12501 -0.00767517C2.62432 -0.00767517 3.10319 0.190677 3.45626 0.543747L18.775 15.8625C19.6481 16.7334 20.3407 17.7679 20.8134 18.9069C21.286 20.0458 21.5293 21.2669 21.5293 22.5C21.5293 23.7331 21.286 24.9542 20.8134 26.0931C20.3407 27.2321 19.6481 28.2666 18.775 29.1375L3.45626 44.4562C3.28106 44.63 3.07328 44.7675 2.84483 44.8608C2.61639 44.9541 2.37177 45.0014 2.12501 45Z" fill="#2C3648"/>
</svg>
