<svg width="26" height="27" viewBox="0 0 26 27" fill="none" xmlns="http://www.w3.org/2000/svg">
<path d="M7.80465 27C9.03621 27 10.0346 26.0016 10.0346 24.7701C10.0346 23.5385 9.03621 22.5401 7.80465 22.5401C6.57308 22.5401 5.57471 23.5385 5.57471 24.7701C5.57471 26.0016 6.57308 27 7.80465 27Z" fill="#2C3648"/>
<path d="M18.9544 27C20.186 27 21.1844 26.0016 21.1844 24.7701C21.1844 23.5385 20.186 22.5401 18.9544 22.5401C17.7229 22.5401 16.7245 23.5385 16.7245 24.7701C16.7245 26.0016 17.7229 27 18.9544 27Z" fill="#2C3648"/>
<path d="M24.274 11.0849C24.1298 11.058 23.9817 11.0599 23.8383 11.0906C23.6949 11.1212 23.559 11.1801 23.4385 11.2637C23.318 11.3473 23.2153 11.4539 23.1363 11.5775C23.0573 11.7011 23.0036 11.8391 22.9784 11.9836C22.8393 12.7553 22.4336 13.4537 21.832 13.9567C21.2304 14.4596 20.4712 14.7352 19.687 14.7354H6.0409L4.99283 5.8156H14.4946C14.7903 5.8156 15.0739 5.69813 15.283 5.48903C15.4921 5.27993 15.6096 4.99634 15.6096 4.70063C15.6096 4.40492 15.4921 4.12133 15.283 3.91223C15.0739 3.70313 14.7903 3.58566 14.4946 3.58566H4.7297L4.68287 3.19319C4.58678 2.37993 4.19569 1.63018 3.58372 1.08602C2.97175 0.541855 2.18141 0.241102 1.36249 0.240753L1.11497 0.240753C0.819261 0.240753 0.535664 0.358223 0.326567 0.56732C0.11747 0.776417 0 1.06001 0 1.35572C0 1.65143 0.11747 1.93503 0.326567 2.14412C0.535664 2.35322 0.819261 2.47069 1.11497 2.47069H1.36249C1.63559 2.47073 1.89917 2.57099 2.10325 2.75246C2.30732 2.93393 2.4377 3.18399 2.46966 3.45521L4.00385 16.5004C4.16313 17.857 4.81497 19.108 5.83565 20.0159C6.85632 20.9237 8.17479 21.4252 9.54079 21.4252H21.1844C21.4801 21.4252 21.7637 21.3077 21.9728 21.0986C22.1819 20.8895 22.2994 20.6059 22.2994 20.3102C22.2994 20.0145 22.1819 19.7309 21.9728 19.5218C21.7637 19.3127 21.4801 19.1952 21.1844 19.1952H9.54079C8.84897 19.1954 8.17413 18.981 7.60923 18.5816C7.04432 18.1822 6.61715 17.6175 6.38654 16.9653H19.687C20.9939 16.9654 22.2593 16.5064 23.2622 15.6684C24.2651 14.8304 24.9417 13.6667 25.1738 12.3805C25.1998 12.2364 25.1972 12.0885 25.1661 11.9454C25.1349 11.8022 25.0759 11.6666 24.9924 11.5463C24.9088 11.426 24.8023 11.3233 24.6791 11.2441C24.5558 11.165 24.4182 11.1109 24.274 11.0849Z" fill="#2C3648"/>
</svg>
