<svg width="26" height="26" viewBox="0 0 26 26" fill="none" xmlns="http://www.w3.org/2000/svg">
<path d="M18.9584 0.993408C17.7386 1.01238 16.5453 1.35292 15.4991 1.98062C14.4529 2.60832 13.5909 3.50097 13.0001 4.56841C12.4093 3.50097 11.5473 2.60832 10.5011 1.98062C9.45495 1.35292 8.26167 1.01238 7.04178 0.993408C5.09713 1.0779 3.26496 1.9286 1.94555 3.35966C0.626132 4.79072 -0.0732788 6.68581 0.000117573 8.63091C0.000117573 15.9705 11.8691 24.4476 12.3739 24.8072L13.0001 25.2503L13.6263 24.8072C14.1311 24.4497 26.0001 15.9705 26.0001 8.63091C26.0735 6.68581 25.3741 4.79072 24.0547 3.35966C22.7353 1.9286 20.9031 1.0779 18.9584 0.993408Z" fill="#FF4F5C"/>
</svg>
