<svg width="26" height="26" viewBox="0 0 26 26" fill="none" xmlns="http://www.w3.org/2000/svg">
<path d="M18.9584 0.993408C17.7386 1.01238 16.5453 1.35292 15.4991 1.98062C14.4529 2.60832 13.5909 3.50097 13.0001 4.56841C12.4093 3.50097 11.5473 2.60832 10.5011 1.98062C9.45495 1.35292 8.26167 1.01238 7.04178 0.993408C5.09713 1.0779 3.26496 1.9286 1.94555 3.35966C0.626132 4.79072 -0.0732788 6.68581 0.000117572 8.63091C0.000117572 15.9705 11.8691 24.4476 12.3739 24.8073L13.0001 25.2503L13.6263 24.8073C14.1311 24.4498 26.0001 15.9705 26.0001 8.63091C26.0735 6.68581 25.3741 4.79072 24.0547 3.35966C22.7353 1.9286 20.9031 1.0779 18.9584 0.993408ZM13.0001 22.5832C9.47603 19.9507 2.16678 13.4832 2.16678 8.63091C2.09273 7.26019 2.56368 5.91579 3.47693 4.89092C4.39017 3.86605 5.67162 3.24387 7.04178 3.16008C8.41194 3.24387 9.69339 3.86605 10.6066 4.89092C11.5199 5.91579 11.9908 7.26019 11.9168 8.63091H14.0834C14.0094 7.26019 14.4803 5.91579 15.3936 4.89092C16.3068 3.86605 17.5883 3.24387 18.9584 3.16008C20.3286 3.24387 21.61 3.86605 22.5233 4.89092C23.4365 5.91579 23.9075 7.26019 23.8334 8.63091C23.8334 13.4853 16.5242 19.9507 13.0001 22.5832Z" fill="#2C3648"/>
</svg>
