<svg width="9" height="9" viewBox="0 0 9 9" fill="none" xmlns="http://www.w3.org/2000/svg">
<path d="M8.8902 0.109797C8.81988 0.039494 8.72451 0 8.62507 0C8.52564 0 8.43027 0.039494 8.35994 0.109797L4.5 3.96974L0.640056 0.109797C0.569732 0.039494 0.474365 0 0.374927 0C0.275488 0 0.180121 0.039494 0.109797 0.109797V0.109797C0.039494 0.180121 0 0.275488 0 0.374927C0 0.474365 0.039494 0.569732 0.109797 0.640056L3.96974 4.5L0.109797 8.35994C0.039494 8.43027 0 8.52564 0 8.62507C0 8.72451 0.039494 8.81988 0.109797 8.8902V8.8902C0.180121 8.96051 0.275488 9 0.374927 9C0.474365 9 0.569732 8.96051 0.640056 8.8902L4.5 5.03026L8.35994 8.8902C8.43027 8.96051 8.52564 9 8.62507 9C8.72451 9 8.81988 8.96051 8.8902 8.8902C8.96051 8.81988 9 8.72451 9 8.62507C9 8.52564 8.96051 8.43027 8.8902 8.35994L5.03026 4.5L8.8902 0.640056C8.96051 0.569732 9 0.474365 9 0.374927C9 0.275488 8.96051 0.180121 8.8902 0.109797V0.109797Z" fill="#2C3648"/>
</svg>
